<svg xmlns="http://www.w3.org/2000/svg" fill="none" viewBox="0 0 24 24" stroke="currentColor" stroke-width="1.5">
    <!-- Pavillon (partie ronde) -->
    <path stroke-linecap="round" stroke-linejoin="round" d="M15.5 15.5c1.5 0 2.5-1 2.5-2.5s-1-2.5-2.5-2.5c-1.5 0-2.5 1-2.5 2.5s1 2.5 2.5 2.5z"/>
    <!-- Tube -->
    <path stroke-linecap="round" stroke-linejoin="round" d="M13 13c-1-1-2-2.5-2-4 0-2.5 2-5 4-5s4 2.5 4 5c0 1.5-1 3-2 4"/>
    <!-- Embout (oreille) -->
    <path stroke-linecap="round" stroke-linejoin="round" d="M19 9c.5-1 1-2 1-3.5"/>
    <!-- Branche -->
    <path stroke-linecap="round" stroke-linejoin="round" d="M7 7c-.5 1-1 2-1 3.5"/>
    <!-- Y-connection -->
    <path stroke-linecap="round" stroke-linejoin="round" d="M7 10.5c0 2 1.5 3 3 3"/>
    <!-- Tube vers le pavillon -->
    <path stroke-linecap="round" stroke-linejoin="round" d="M10 13.5c.5 1 1 2 2 2"/>
</svg>
